<svg xmlns="http://www.w3.org/2000/svg" width="144" height="32" fill="none" viewBox="0 0 144 32"><g fill="#000" clip-path="url(#a)"><path d="M16.032.13c-.106.073-.23.16-.277.19-.18.125-.383.266-.415.286-.035.027-.171.12-.335.234-.426.305-.653.45-.813.527-.098.051-.191.094-.207.098l-.07.031c-.07.028-.153.051-.278.082-.176.04-.199.047-.43.067-.265.023-.585 0-.835-.063-.375-.094-.668-.238-1.098-.543l-.242-.172c-.078-.05-.25-.168-.38-.257-.128-.09-.304-.211-.39-.27-.086-.062-.172-.121-.187-.133-.016-.015-.047-.035-.07-.05a1 1 0 0 1-.106-.07c-.074-.06-.098-.075-.11-.063a29 29 0 0 0 .829 1.226c.039.059.097.145.129.188.238.34.406.625.48.808.102.262.145.461.184.79.02.163.02.25-.004.425a2.8 2.8 0 0 1-.223.871c-.015.035-.031.07-.031.074 0 .028-.195.332-.492.766-.469.684-.461.672-.531.777-.09.125-.141.2-.25.356-.086.121-.11.172-.09.172.004 0 .164-.11.351-.242.192-.133.406-.282.485-.332l.195-.137c.117-.086.726-.504.789-.543.086-.055.348-.184.422-.211a.4.4 0 0 0 .07-.027c.008-.008.027-.012.043-.012.02 0 .035-.008.043-.012.004-.008.023-.016.047-.023.02-.004.078-.016.125-.028.207-.058.324-.07.633-.07.34 0 .441.012.722.094.082.02.223.066.254.082.242.105.496.242.547.293q.02.018.031.02c.008 0 .024.011.032.019.02.02.164.12.476.336l.348.238c.121.086.285.2.367.254.078.055.168.117.195.14l.079.051c.015.008.046.032.074.051a.4.4 0 0 0 .082.055c.035.02.035.02.012-.024a2 2 0 0 0-.079-.117 1 1 0 0 1-.058-.086 4.905 4.905 0 0 1-.215-.305 1 1 0 0 0-.066-.097l-.348-.508c-.164-.242-.344-.5-.39-.574a1 1 0 0 1-.102-.16c-.008 0-.02-.016-.028-.035l-.058-.118a2.586 2.586 0 0 1-.23-.656c-.008-.043-.024-.105-.032-.144-.008-.04-.016-.164-.023-.278a2.6 2.6 0 0 1 .152-1.023c.004-.016.02-.055.027-.082.074-.195.18-.383.407-.711.093-.14.207-.3.246-.36.043-.058.093-.132.113-.164.023-.03.05-.07.062-.09.012-.015.16-.234.332-.484s.31-.457.31-.457a1.5 1.5 0 0 0-.2.13"/><path d="M3.977 5.516a8 8 0 0 0-.512.086c-.246.058-.32.078-.379.101A1 1 0 0 1 3 5.731l-.101.035c-.02.012-.094.039-.164.066a6 6 0 0 0-.55.274c-.013.008-.036.027-.06.039-.289.168-.527.355-.84.668a3.3 3.3 0 0 0-.464.535c-.121.168-.297.445-.297.469 0 .004-.012.023-.024.043a5 5 0 0 0-.195.433c-.015.035-.031.078-.039.094a7 7 0 0 0-.11.336c-.12.445-.179.996-.148 1.433.024.317.028.36.043.454.012.043.02.113.024.152.008.04.015.117.023.172l.027.2c.028.19.043.316.063.464.016.082.031.2.04.258l.026.207.028.203.027.207c.008.058.024.16.027.223.008.066.02.132.024.148.008.024.02.106.05.36l.028.206c.008.055.02.125.023.157.004.03.012.097.02.148.008.055.02.152.031.223.008.07.024.183.035.25.012.07.028.18.036.25s.02.16.027.199c.008.04.015.09.015.117s.004.078.012.117.024.125.031.192c.036.293.047.355.067.457.012.062.02.129.02.156 0 .024.003.074.011.113.008.036.02.121.031.188l.055.43c.008.05.02.144.031.207l.035.246c.012.07.024.16.028.199s.015.117.023.172c.016.125.035.277.055.41l.035.254c.024.16.043.293.066.473.004.058.02.152.028.207s.015.128.02.16c.007.03.015.097.023.148s.02.152.027.223c.008.07.027.18.04.242.01.062.019.137.019.16 0 .024.004.078.011.113.008.04.024.125.032.192l.027.207c.008.047.02.144.027.215.012.07.024.168.032.21l.02.137c.01.117.038.285.05.352a1 1 0 0 1 .016.117c0 .027.003.078.011.117s.02.125.032.192c.02.164.039.32.058.425.004.051.016.125.02.165a1 1 0 0 0 .015.097c.004.012.012.07.02.137.008.062.023.156.027.21.016.114.04.263.055.415.012.055.027.172.039.254l.035.25c.016.101.035.254.059.43.023.16.039.3.054.41.008.058.02.144.028.191s.023.14.031.215l.027.223c.008.05.02.144.028.207.011.062.023.156.03.207.009.05.02.148.028.214.008.067.028.176.035.243.012.066.028.175.036.242l.058.43c.008.05.02.144.027.207.036.265.047.335.067.472l.035.238c.012.086.016.133.055.426.011.059.023.153.031.203.004.051.02.149.027.223.012.07.028.18.035.242.012.063.028.176.036.25s.02.149.023.164c.004.016.012.082.024.145.003.062.02.16.023.215.008.054.023.148.027.21.012.06.024.149.032.192.007.047.02.14.027.21.012.071.023.169.031.216s.02.148.027.222c.012.075.024.16.032.188.004.027.011.074.011.098 0 .046.008.109.043.328.008.05.024.14.032.195.011.094.023.191.054.426.036.262.043.308.051.379.008.054.016.074.031.074.02 0 .157-.043.223-.07.016-.004.059-.02.094-.032a.2.2 0 0 0 .078-.027c.008-.004.055-.02.101-.035a.5.5 0 0 0 .098-.04.1.1 0 0 1 .04-.01c.015 0 .038-.005.05-.013.016-.007.086-.035.16-.058a4 4 0 0 0 .36-.13.1.1 0 0 1 .05-.01c.016 0 .032-.009.043-.013.004-.007.035-.023.07-.03.032-.012.067-.024.083-.032.015-.008.074-.027.129-.05.058-.02.113-.044.128-.048.016-.008.122-.05.235-.097.219-.086.254-.102.43-.176.058-.027.124-.055.148-.067.055-.023.262-.117.43-.195.144-.066.714-.355.836-.422l.156-.086a15 15 0 0 0 .75-.433c.004 0 .125-.075.289-.18l.152-.094c.082-.054.285-.187.43-.285l.133-.094.133-.09c.05-.035.25-.183.523-.382.125-.094.246-.188.465-.36.16-.125.562-.468.761-.644.168-.152.407-.371.52-.477.121-.113.758-.761.844-.855.039-.043.094-.102.117-.13.027-.026.09-.1.144-.16.051-.058.122-.14.16-.179.126-.14.235-.27.255-.297.011-.015.046-.055.074-.086.027-.035.078-.093.105-.129.117-.16.254-.312.262-.3.008.007.04.046.066.085.032.04.082.106.114.145.117.14.425.512.433.52.004.003.047.05.094.105s.113.133.152.172c.035.039.11.125.168.187a26 26 0 0 0 1.371 1.36c.055.047.172.152.266.23.09.078.18.153.191.164.024.024.18.153.286.235l.257.203c.215.172.536.41.704.527l.144.098c.023.02.047.035.05.039.009.008.454.305.583.39.2.125.61.375.719.438.027.02.078.043.109.063l.156.09c.059.03.137.074.172.093.098.055.473.254.63.328.183.094.554.274.562.274.004 0 .062.023.132.054.067.035.137.067.153.07.015.008.078.036.14.067a1 1 0 0 0 .16.063c.012.007.313.132.528.218l.41.157a.1.1 0 0 0 .047.015c.012 0 .031.004.047.012.027.015.172.066.445.156.195.067.41.14.45.16.015.004.058.02.093.028a.3.3 0 0 1 .078.03c.008.009.024.013.035.013s.04.011.063.023.043.02.047.02c.015 0 .039-.133.074-.45l.031-.207.027-.207c.008-.054.024-.148.028-.203l.043-.308c.039-.27.054-.391.074-.524l.027-.203c.008-.055.02-.148.032-.215.007-.07.023-.183.03-.254.02-.12.036-.23.067-.46l.028-.204.058-.43a5 5 0 0 1 .032-.207c.007-.046.019-.128.023-.18.015-.097.035-.26.058-.421.016-.106.032-.219.055-.414.035-.254.043-.32.059-.422q.04-.258.05-.352c.005-.03.012-.097.02-.148.008-.055.016-.125.02-.16.007-.035.015-.106.023-.156.031-.227.059-.418.074-.524.008-.062.02-.156.028-.207a23.323 23.323 0 0 1 .086-.61l.02-.163c.003-.035.015-.102.023-.149l.054-.422c.012-.058.024-.148.032-.203.003-.05.019-.144.027-.215.011-.066.027-.18.035-.25.02-.128.043-.277.066-.46.02-.149.04-.313.055-.41.008-.048.02-.145.027-.216.012-.07.028-.183.04-.25.011-.066.027-.18.035-.25.015-.144.023-.187.043-.324l.027-.195.027-.211.028-.211c.007-.059.023-.176.039-.262l.035-.258c.012-.101.023-.195.055-.414.011-.062.023-.16.03-.214.009-.059.024-.192.044-.301.031-.219.047-.348.07-.52l.027-.203c.008-.05.024-.148.032-.215a7 7 0 0 1 .035-.25c.015-.125.031-.21.062-.465.036-.234.047-.324.059-.41.008-.047.02-.144.027-.215.008-.07.024-.183.035-.25.012-.066.028-.18.036-.25.011-.07.023-.168.03-.214.005-.047.02-.137.028-.2l.027-.207c.008-.05.02-.152.032-.222.008-.07.02-.168.027-.211.008-.047.02-.133.031-.192.004-.062.02-.156.024-.207.008-.05.02-.12.023-.156a40 40 0 0 1 .113-.824l.036-.266c.015-.09.03-.222.058-.425.008-.06.02-.153.031-.204.004-.05.016-.113.02-.136.004-.043.012-.114.047-.364.008-.05.023-.144.031-.207l.027-.207c.008-.05.02-.148.028-.215.012-.066.023-.16.031-.207.008-.043.016-.117.023-.164a1 1 0 0 1 .012-.09 34.445 34.445 0 0 1 .078-.555c.024-.19.043-.327.055-.452.02-.168.012-.828-.012-.957l-.03-.2a4.5 4.5 0 0 0-.184-.718c-.004-.016-.02-.051-.028-.078l-.035-.094c-.012-.024-.031-.07-.047-.106a5 5 0 0 0-.402-.73 4.7 4.7 0 0 0-.93-.992 9 9 0 0 0-.422-.293 1 1 0 0 0-.164-.09c-.008 0-.012-.008-.012-.012q0-.017-.02-.016c-.026 0-.093-.035-.093-.046 0-.008-.008-.012-.015-.012a1 1 0 0 1-.157-.067 2 2 0 0 0-.164-.074 10.371 10.371 0 0 0-.45-.16 1 1 0 0 1-.1-.027c-.02-.004-.075-.02-.122-.028-.046-.011-.105-.023-.129-.03a6 6 0 0 0-.468-.071 5.5 5.5 0 0 0-.805 0 5 5 0 0 0-.746.14c-.031.012-.078.024-.102.032-.062.015-.18.054-.238.082-.027.011-.062.027-.078.031-.188.074-.434.2-.672.344a7 7 0 0 0-.344.21c-.008.009-.02.02-.027.02a7.574 7.574 0 0 0-.246.148c-.016.008-.094.06-.176.11s-.21.133-.289.184a2 2 0 0 0-.16.101c-.012.008-.02.016-.027.016l-.196.12-.21.134a1 1 0 0 0-.102.058 1 1 0 0 1-.098.063c-.027.012-.402.25-.426.27-.007.003-.02.011-.023.011a1 1 0 0 0-.094.059 1 1 0 0 1-.094.058.2.2 0 0 0-.046.028c-.02.011-.106.07-.196.12-.086.055-.23.145-.32.2-.09.059-.227.14-.3.187-.075.047-.165.106-.208.13-.094.062-.355.222-.402.25-.02.015-.078.05-.133.081-.05.036-.125.082-.164.106a.3.3 0 0 0-.078.055c0 .011.234.16.254.16 0 0 .054.027.113.062s.11.067.113.067c0 0 .047.023.098.054.05.032.098.059.098.059a1 1 0 0 1 .117.062c.058.04.113.067.113.067.004 0 .066.035.137.078.074.043.133.078.136.078s.035.02.075.043c.039.02.097.055.132.074l.266.156c.176.098.149.098.293.004.074-.043.2-.12.281-.172.082-.054.223-.14.313-.199.09-.054.234-.144.316-.195.082-.05.242-.148.352-.219.207-.133.238-.148.375-.234.043-.024.133-.082.199-.121.066-.043.156-.102.2-.125.042-.028.14-.086.218-.137.078-.05.144-.09.144-.09.008 0 .083-.047.168-.105.09-.059.172-.11.184-.114l.059-.035c.554-.355.765-.476.96-.554.055-.02.114-.047.125-.051a.1.1 0 0 1 .051-.016c.016 0 .032-.004.036-.012a.1.1 0 0 1 .054-.02c.027-.003.102-.015.168-.03a2.8 2.8 0 0 1 .852-.012c.222.043.386.09.547.152.101.043.328.157.386.196.02.011.063.043.102.066.035.023.066.043.07.047l.078.066c.23.18.371.332.543.586.137.2.27.477.32.66l.028.102a3 3 0 0 1 .058.305c.024.136.024.53 0 .687-.007.067-.019.156-.023.2a1 1 0 0 1-.023.128c-.004.028-.012.074-.012.11a.5.5 0 0 1-.012.105 1 1 0 0 0-.023.125l-.02.164c-.008.047-.02.14-.027.2-.02.12-.04.277-.059.421-.007.055-.023.153-.031.22-.008.07-.023.179-.035.253-.012.07-.027.18-.035.242-.02.133-.035.258-.059.414l-.055.438a5 5 0 0 0-.035.242 5 5 0 0 0-.035.242c-.012.07-.023.164-.031.215-.008.055-.02.144-.027.207-.008.066-.024.156-.028.21l-.027.208c-.027.207-.059.426-.074.516a5 5 0 0 0-.028.218c-.007.074-.02.153-.023.172a6 6 0 0 0-.047.344c-.008.058-.024.176-.04.258-.019.148-.034.273-.062.465-.011.101-.03.25-.058.43l-.027.202c-.004.051-.02.133-.028.176-.004.043-.02.133-.027.203-.008.067-.024.168-.032.223-.007.059-.019.156-.03.215l-.028.207-.027.195c-.008.055-.016.133-.024.176a.4.4 0 0 1-.012.086 1 1 0 0 0-.02.129c-.007.066-.022.164-.03.222-.008.051-.02.149-.028.211-.011.067-.02.157-.027.211-.008.051-.02.145-.027.207-.02.125-.047.328-.082.563q-.043.305-.055.41c-.004.031-.016.102-.02.156-.007.055-.023.153-.03.215l-.036.266c-.016.082-.031.199-.035.258-.016.093-.024.171-.051.351-.004.031-.016.11-.023.176-.008.07-.02.156-.028.195s-.015.102-.02.14c-.007.04-.015.11-.023.153-.004.043-.02.137-.027.207-.008.07-.024.172-.027.223-.008.05-.024.144-.032.207-.02.144-.035.262-.062.445-.024.172-.047.317-.067.477a3 3 0 0 1-.027.191 1 1 0 0 0-.015.117 1 1 0 0 1-.012.117c-.008.04-.02.126-.032.2-.007.07-.023.183-.035.25-.008.066-.027.175-.035.242l-.027.207a5 5 0 0 0-.027.215c-.012.07-.024.16-.032.199a1 1 0 0 0-.012.125 1 1 0 0 1-.015.121c-.016.07-.059.375-.094.649-.008.085-.023.18-.027.21l-.024.157-.062.465c-.02.148-.04.273-.063.464-.007.055-.023.145-.027.2-.008.054-.02.152-.031.215a2 2 0 0 1-.02.136 1 1 0 0 0-.015.102 2 2 0 0 1-.02.156c-.008.043-.02.137-.031.207-.031.258-.031.258-.074.254a.5.5 0 0 1-.13-.043 1 1 0 0 0-.1-.047c-.009 0-.067-.023-.38-.172-.18-.086-.746-.37-.765-.386a2 2 0 0 0-.133-.075 15 15 0 0 1-.477-.265l-.156-.094c-.14-.086-.36-.219-.469-.293-.043-.027-.082-.055-.094-.059a25 25 0 0 1-.742-.511c-.015-.016-.066-.051-.11-.082a6 6 0 0 1-.233-.176c-.086-.067-.188-.149-.23-.18a2 2 0 0 1-.157-.125 28 28 0 0 1-.586-.492c-.203-.18-.371-.336-.684-.64-.28-.27-.41-.403-.851-.883-.047-.051-.121-.137-.164-.184-.043-.05-.11-.133-.153-.18-.09-.105-.414-.504-.453-.554-.015-.024-.066-.09-.113-.153-.18-.226-.207-.27-.207-.293a.7.7 0 0 1 .086-.156c.047-.074.09-.145.094-.156.007-.012.05-.086.101-.168.05-.082.09-.149.09-.153a1 1 0 0 1 .055-.097c.066-.11.16-.285.3-.547.083-.156.329-.645.403-.8.09-.204.14-.31.14-.317 0-.004.02-.051.043-.102a1 1 0 0 0 .043-.101l.043-.094.13-.313a26 26 0 0 1 .206-.527c.035-.102.07-.195.078-.21.008-.017.028-.075.047-.134.075-.218.106-.3.114-.312.007-.004.011-.024.011-.043 0-.016.004-.035.012-.04.008-.003.016-.023.016-.038a.1.1 0 0 1 .011-.051 3 3 0 0 0 .098-.281c.012-.043.027-.086.031-.102.012-.027.028-.078.11-.344.02-.07.043-.14.05-.152a.2.2 0 0 0 .012-.062q.002-.031.016-.043a.1.1 0 0 0 .02-.047c.007-.047.023-.106.073-.262l.06-.207c.01-.047.026-.098.03-.113a.3.3 0 0 0 .02-.067 2 2 0 0 1 .047-.164c.062-.215.066-.226.078-.277.015-.074.062-.246.105-.403.024-.074.043-.156.051-.183s.028-.102.043-.168l.043-.164c.004-.027.027-.114.05-.192.052-.183.06-.23.079-.3l.027-.114.028-.117c.008-.031.023-.094.039-.14a90 90 0 0 1 .277-1.082c.035-.141.04-.168.063-.25.015-.047.035-.125.046-.172.012-.047.028-.098.032-.114.008-.015.015-.05.023-.074.004-.023.012-.066.02-.098.011-.027.02-.074.027-.105.02-.074.098-.36.117-.414a.3.3 0 0 0 .012-.074.06.06 0 0 1 .015-.04c.008-.003.016-.023.016-.042 0-.024-.012-.04-.047-.059a2 2 0 0 1-.148-.086c-.059-.031-.11-.062-.11-.062a1 1 0 0 1-.117-.063c-.058-.035-.11-.066-.113-.066a1 1 0 0 1-.094-.055c-.09-.05-.137-.078-.293-.168-.039-.02-.074-.043-.086-.047a3.253 3.253 0 0 0-.191-.113c-.035-.02-.094-.055-.133-.074a.3.3 0 0 0-.082-.043q-.012-.002-.012-.016-.002-.012-.015-.012a.4.4 0 0 1-.082-.043c-.04-.02-.098-.054-.133-.074-.113-.062-.16-.094-.273-.16l-.118-.066c-.004 0-.078-.043-.168-.094-.09-.055-.191-.113-.222-.133l-.133-.074-.074-.043c-.004 0-.067-.035-.137-.078-.074-.043-.133-.078-.137-.078l-.3-.172a5 5 0 0 0-.301-.172.2.2 0 0 1-.047-.027.6.6 0 0 0-.11-.067l-.09-.05c-.058-.036-.312-.18-.328-.192a1 1 0 0 1-.074-.04l-.113-.066c-.035-.019-.082-.043-.106-.058a7 7 0 0 0-.375-.215s-.035-.023-.078-.047c-.062-.039-.074-.043-.101-.027-.016.012-.067.039-.11.062l-.132.078a1 1 0 0 1-.059.032.3.3 0 0 0-.074.043.3.3 0 0 1-.07.043 1 1 0 0 0-.114.066c-.058.035-.113.063-.113.063-.004 0-.059.03-.117.066a8 8 0 0 1-.278.16c-.035.02-.105.059-.156.09a1 1 0 0 1-.094.055c-.004 0-.035.02-.074.043-.039.02-.098.054-.133.074-.09.054-.129.074-.504.289-.183.11-.363.215-.398.23l-.207.121a2 2 0 0 1-.152.09c-.004 0-.079.043-.168.094-.145.086-.196.113-.332.195-.102.051-.145.079-.254.145a1 1 0 0 1-.118.066s-.074.04-.16.09c-.082.05-.187.11-.23.133a5 5 0 0 0-.238.14c-.09.051-.164.094-.168.094-.008 0-.317.184-.387.227-.043.027-.047.035-.02.125.012.05.024.082.055.223.008.027.031.117.059.207l.058.214.028.102a.3.3 0 0 1 .015.074c0 .016.004.035.012.04.008.003.016.019.016.034 0 .02.003.051.011.079.055.183.09.308.117.425l.028.11.027.113.055.21c.023.087.047.177.05.2l.075.285c.058.223.12.47.137.532l.027.105c.039.145.14.527.156.602.008.027.027.113.05.187.02.074.052.184.067.242.016.059.035.125.04.153.007.02.03.101.05.175l.067.239c.015.054.035.12.035.148a.2.2 0 0 0 .023.055c.004.004.012.02.012.039 0 .02.004.05.012.066.007.02.027.082.043.14.02.06.043.134.05.165s.032.102.047.16c.114.367.344 1.078.36 1.11.011.015.015.039.015.054 0 .016.004.031.012.035s.016.024.02.04c.007.035.09.273.109.32.008.015.027.07.043.12.02.052.043.114.05.138.012.023.04.097.067.164.047.136.055.152.098.246.015.039.03.074.03.078s.009.031.02.058a1 1 0 0 1 .036.082l.035.079.047.125.066.156a21.898 21.898 0 0 0 .746 1.523c.203.36.457.797.535.91.024.036.04.075.04.086 0 .024-.051.098-.208.301l-.097.129-.25.313c-.207.253-.313.378-.614.714a28 28 0 0 1-1.171 1.184 5 5 0 0 0-.2.176 18.61 18.61 0 0 1-1.816 1.426c-.074.05-.508.335-.613.402-.141.082-.52.312-.575.344l-.101.054c-.031.02-.11.063-.176.098s-.14.078-.164.09a37 37 0 0 1-.89.445c-.044.024-.137.063-.204.098-.07.031-.129.058-.133.058-.007 0-.128.055-.168.07-.011.009-.027.016-.027.016-.004 0-.016-.07-.031-.156-.012-.086-.031-.187-.035-.234a.5.5 0 0 1-.016-.121c0-.024-.008-.079-.012-.118a1.3 1.3 0 0 1-.03-.187l-.028-.215c-.008-.05-.02-.148-.031-.215a5 5 0 0 0-.036-.242 5 5 0 0 0-.035-.246c-.02-.176-.039-.324-.054-.43-.008-.05-.024-.14-.032-.203a10 10 0 0 0-.058-.426c-.008-.05-.02-.125-.024-.164a.5.5 0 0 0-.02-.12.5.5 0 0 1-.011-.102 1 1 0 0 0-.012-.125 2 2 0 0 1-.031-.188l-.027-.215c-.035-.23-.078-.531-.09-.625a4 4 0 0 0-.024-.207c-.007-.058-.023-.156-.027-.215-.008-.058-.02-.125-.023-.148l-.024-.164a5 5 0 0 0-.035-.25 7 7 0 0 1-.035-.254l-.027-.215c-.008-.05-.02-.144-.032-.207l-.027-.207-.027-.223c-.012-.07-.028-.175-.04-.234a1 1 0 0 1-.019-.152 1 1 0 0 0-.012-.117 2 2 0 0 1-.031-.196 4 4 0 0 0-.027-.207 4 4 0 0 1-.028-.207l-.03-.215-.036-.25a4 4 0 0 0-.035-.234 1 1 0 0 1-.016-.117 1 1 0 0 0-.012-.117l-.03-.192-.028-.215-.086-.62c-.008-.06-.016-.118-.02-.137l-.015-.102c-.008-.07-.028-.227-.051-.387l-.027-.218a1 1 0 0 0-.024-.137c-.004-.012-.012-.082-.023-.153-.008-.07-.02-.168-.024-.214-.02-.137-.058-.407-.086-.637a1 1 0 0 0-.023-.14c-.004-.024-.027-.16-.047-.352-.016-.098-.027-.207-.059-.43-.007-.055-.023-.145-.027-.2-.031-.234-.043-.308-.058-.41-.016-.109-.032-.206-.06-.406l-.026-.207-.028-.203a7 7 0 0 0-.062-.43c-.004-.05-.016-.124-.02-.164a1 1 0 0 0-.02-.12.5.5 0 0 1-.011-.11.6.6 0 0 0-.016-.121 3 3 0 0 1-.027-.184c-.012-.066-.023-.164-.031-.215-.004-.05-.02-.152-.028-.222l-.03-.207-.028-.188a8 8 0 0 0-.047-.355 3 3 0 0 1-.024-.164c-.023-.192-.042-.328-.062-.473a8 8 0 0 1-.035-.25c-.012-.07-.024-.164-.031-.215l-.028-.215a4 4 0 0 0-.027-.203c-.008-.039-.02-.136-.031-.21a3 3 0 0 0-.028-.212 3 3 0 0 1-.031-.183c-.016-.125-.027-.235-.055-.414-.062-.469-.074-.61-.066-.86.008-.218.016-.273.062-.48.024-.102.082-.278.114-.36.05-.117.183-.37.195-.37.004 0 .012-.008.012-.016s.02-.047.047-.086a2.8 2.8 0 0 1 .718-.696c.133-.09.418-.238.493-.253.02-.008.043-.016.046-.024s.024-.012.043-.012c.016 0 .04-.007.043-.015.004-.008.024-.016.043-.016a.13.13 0 0 0 .059-.012c.016-.007.062-.02.11-.03.046-.009.117-.024.152-.028.11-.027.406-.04.574-.027.273.02.512.07.715.16.105.043.394.195.437.226.02.012.067.043.106.063l.215.129c.097.054.144.086.175.109.024.012.067.04.102.059.125.07.168.093.23.132.036.024.075.047.09.059a12 12 0 0 1 .32.188c.012.003.047.027.079.046.03.02.07.043.086.055.058.031.187.11.214.125.043.027.282.164.336.2.098.062.153.093.266.156.016.007.05.035.082.054.031.02.086.051.121.07.04.024.125.075.2.118a4 4 0 0 0 .222.129c.066.047.121.078.215.129.015.011.055.035.086.054.031.02.086.051.12.074l.161.094a.5.5 0 0 0 .121.059 1 1 0 0 0 .14-.07c.067-.04.126-.07.13-.07 0 0 .062-.04.136-.083.07-.043.133-.078.133-.078.004 0 .055-.027.117-.062l.11-.067c.004 0 .054-.027.21-.121a1 1 0 0 1 .094-.05c.036-.024.09-.052.118-.071.027-.016.058-.031.07-.04.012-.003.105-.058.207-.116.105-.059.226-.13.273-.153a.4.4 0 0 0 .09-.062.6.6 0 0 0-.148-.102.3.3 0 0 1-.067-.039 1 1 0 0 0-.09-.054 4 4 0 0 0-.214-.13c-.016-.007-.078-.046-.14-.085-.063-.035-.134-.078-.161-.09a2 2 0 0 0-.156-.094l-.141-.086-.246-.148a1 1 0 0 1-.074-.043.4.4 0 0 1-.078-.047c-.036-.02-.09-.055-.125-.074a1 1 0 0 1-.141-.082 2 2 0 0 0-.195-.114c-.004 0-.032-.02-.067-.043l-.125-.074a9 9 0 0 0-.265-.16 4 4 0 0 0-.211-.125 1 1 0 0 1-.106-.063 4 4 0 0 0-.168-.101 3 3 0 0 1-.16-.094 1 1 0 0 0-.094-.058s-.074-.04-.156-.09a2 2 0 0 0-.16-.094.2.2 0 0 1-.047-.027 8 8 0 0 0-.36-.22c-.175-.105-.41-.241-.527-.312a4.7 4.7 0 0 0-.976-.457c-.031-.011-.067-.023-.082-.03a.1.1 0 0 0-.055-.013.1.1 0 0 1-.05-.015c-.016-.004-.063-.02-.114-.028-.047-.011-.102-.023-.125-.03a7 7 0 0 0-.457-.071 8 8 0 0 0-.836 0m9.176 6.512c.043.027.125.074.183.109.059.031.235.133.391.223s.316.18.352.199c.035.023.117.07.183.11l.188.105c.082.047.61.351.765.445.067.035.121.07.125.07s.055.028.114.063a.7.7 0 0 0 .12.062c.008 0 .016.008.016.016s.004.016.012.016.059.027.117.058c.11.063.11.059.07.192a7 7 0 0 0-.074.285 1 1 0 0 1-.035.136l-.035.137-.027.11c-.012.05-.028.109-.055.226l-.05.191a3 3 0 0 0-.052.196c-.015.05-.035.144-.058.226-.004.028-.027.114-.047.188a8 8 0 0 0-.105.41c-.024.086-.075.277-.165.594a1 1 0 0 1-.023.098l-.027.101-.035.129-.043.14c-.02.06-.032.11-.067.239a5 5 0 0 1-.078.273c-.02.051-.04.125-.05.164a.3.3 0 0 1-.032.086c-.004.016-.012.04-.012.055a.1.1 0 0 1-.011.055c-.008.015-.043.12-.082.238-.118.367-.227.703-.262.789-.008.016-.02.059-.032.094a.4.4 0 0 1-.027.078l-.035.086a1 1 0 0 1-.035.098c-.008.019-.024.058-.035.093-.02.063-.094.258-.121.324-.008.02-.02.051-.032.07-.004.02-.02.055-.027.075-.012.023-.023.055-.031.07-.028.078-.04.106-.082.207-.028.059-.055.13-.07.157-.04.097-.06.136-.102.238-.024.055-.063.133-.082.176a18 18 0 0 1-.485.96c-.066.126-.105.184-.117.184-.004 0-.015-.02-.027-.043l-.094-.176c-.07-.128-.418-.82-.48-.96-.016-.04-.051-.114-.074-.165a3 3 0 0 1-.094-.222c-.016-.032-.043-.102-.086-.2a1 1 0 0 1-.043-.101c-.008-.016-.047-.121-.094-.234a7 7 0 0 0-.094-.239c-.008-.015-.03-.086-.054-.156-.028-.07-.055-.148-.067-.172a16 16 0 0 1-.215-.629c-.027-.086-.058-.172-.062-.187-.008-.016-.02-.059-.035-.098a5 5 0 0 0-.063-.203 3 3 0 0 1-.086-.293 9 9 0 0 1-.144-.473l-.063-.214-.058-.207a2 2 0 0 0-.04-.133 1 1 0 0 1-.023-.102l-.027-.101a5 5 0 0 1-.098-.356.3.3 0 0 0-.02-.066 2.783 2.783 0 0 1-.191-.738l-.062-.227c-.02-.074-.04-.16-.047-.188l-.027-.105-.028-.117c-.015-.067-.09-.348-.12-.47a1 1 0 0 1-.036-.144l-.031-.113-.028-.117a1 1 0 0 0-.027-.094c-.02-.05-.012-.074.031-.094.016-.007.32-.18.672-.382.356-.203.664-.383.691-.399l.094-.05c.188-.114.239-.141.309-.18.043-.024.101-.059.133-.078l.101-.063c.082-.043.137-.074.207-.113.11-.063.16-.09.274-.16a.7.7 0 0 1 .125-.067c.004 0 .023-.015.043-.031.05-.035.074-.035.16.016M29.79 12.196c-.063.003-.063.007-.063.062v.055l.082.007a2.09 2.09 0 0 1 1.176.54c.02 0 .219.242.3.359.044.07.11.184.141.25a1.7 1.7 0 0 1 .13.328c.003.016.015.05.019.078.003.027.015.082.023.121.008.04.02.137.024.215.011.09.015 2.606.015 6.727 0 3.62.008 6.605.012 6.636.015.106-.235.098 2.894.098 2.48 0 2.844-.004 3-.023.102-.012.235-.032.301-.036a14 14 0 0 0 1.446-.242 3 3 0 0 0 .265-.066c.043-.012.102-.031.13-.035l.089-.028a1 1 0 0 1 .082-.023.3.3 0 0 0 .066-.02c.016-.007.082-.027.149-.05.066-.02.133-.043.148-.051.016-.008.07-.027.121-.043s.106-.035.121-.043c.016-.004.098-.04.18-.07.082-.036.172-.07.2-.082l.077-.036c.117-.047.649-.316.801-.406.18-.105.575-.363.61-.398a.4.4 0 0 1 .066-.051 1 1 0 0 0 .121-.094c.031-.023.086-.066.125-.101.035-.032.098-.086.14-.122a8 8 0 0 0 .727-.75 7 7 0 0 0 .57-.812l.06-.11c.1-.171.276-.538.355-.742.007-.02.02-.046.027-.066.008-.016.031-.078.05-.137.024-.058.044-.12.052-.136a1 1 0 0 0 .027-.079 7.632 7.632 0 0 0 .172-.602c.043-.183.066-.3.086-.417a.3.3 0 0 1 .02-.094 8 8 0 0 0 .1-.785c.005-.062.017-.172.02-.242.047-.422.024-1.399-.039-1.918-.008-.063-.023-.168-.027-.238a9 9 0 0 0-.059-.38c-.011-.046-.023-.12-.03-.163a2 2 0 0 0-.06-.266.3.3 0 0 1-.011-.07.3.3 0 0 0-.012-.07 4 4 0 0 1-.05-.18c-.024-.075-.044-.16-.055-.192-.008-.035-.02-.07-.024-.086a1 1 0 0 1-.043-.129 5 5 0 0 0-.187-.5 1 1 0 0 1-.028-.074c0-.02-.21-.449-.289-.59-.07-.12-.086-.152-.14-.242a8 8 0 0 0-.325-.476 5.963 5.963 0 0 0-1.117-1.145 9 9 0 0 0-.312-.238c-.016-.008-.078-.05-.149-.094a7 7 0 0 0-.492-.3l-.101-.055c-.02-.024-.575-.285-.72-.344a2 2 0 0 0-.206-.086 2 2 0 0 1-.11-.043 1 1 0 0 0-.12-.043 1 1 0 0 1-.122-.043 1 1 0 0 0-.086-.027l-.105-.036a9 9 0 0 0-1.184-.296c-.34-.059-.804-.114-1.242-.145-.242-.016-7.672-.031-7.812-.016m7.27.78a6 6 0 0 1 1.616.298.1.1 0 0 0 .043.015c.024 0 .063.016.309.114.39.156.68.308 1.015.539q.714.486 1.274 1.312c.05.074.093.14.093.145s.024.039.048.082c.086.133.226.406.304.574.012.035.035.086.047.117.016.031.05.117.082.191.028.075.059.149.063.16.007.016.015.04.015.055 0 .016.004.032.012.035s.016.024.02.04c.003.02.023.09.046.156.036.117.043.14.079.265a8.2 8.2 0 0 1 .156.664l.027.149c.016.066.023.137.059.34.015.117.066.57.086.765.02.203.027 1.278.011 1.621-.023.582-.07.989-.156 1.442a7 7 0 0 1-.183.758c-.008.027-.02.07-.028.093-.02.07-.039.122-.082.235-.02.055-.043.117-.047.137a1 1 0 0 1-.035.085c-.012.028-.04.098-.066.157-.305.707-.68 1.27-1.153 1.746a5 5 0 0 1-.937.742 6 6 0 0 1-.856.418c-.05.023-.464.16-.578.188-.297.078-.617.14-.922.183-.378.05-.406.05-1.906.05-1.414 0-1.496 0-1.52-.027-.023-.023-.023-.32-.027-6.89-.004-5.008 0-6.875.012-6.902.008-.024.031-.047.05-.051.036-.012 2.727-.012 3.028 0M45.801 12.2q-.074.004-.09.039c-.02.027-.015.03.02.066.027.02.082.047.129.059.043.011.094.03.11.035a2.95 2.95 0 0 1 .848.465 2.5 2.5 0 0 1 .354.343c.028.04.063.086.079.102.011.015.023.031.023.043a.1.1 0 0 0 .02.035c.054.058.152.297.207.496.062.21.058.043.058 7.078v6.695l.063.008c.03.004 2.222.004 4.867.004l4.808-.004.004-.351c.004-.38 0-.407-.07-.438-.027-.015-.82-.02-3.645-.023-3.53-.004-3.613-.004-3.64-.032l-.031-.027V20.16l.03-.027c.028-.027.106-.027 3.044-.035 2.937-.004 3.015-.004 3.043-.031.031-.028.031-.04.031-.45 0-.23-.004-.43-.008-.441-.027-.066.114-.062-3.094-.062-2.89 0-3-.004-3.023-.028-.023-.023-.023-.254-.023-3.027v-3l.039-.024c.035-.027.218-.027 3.664-.03L57.247 13l.027-.035c.027-.035.031-.059.031-.355 0-.286-.004-.32-.027-.36-.027-.043-.035-.047-.117-.055-.11-.011-11.266-.007-11.36.004M72.368 12.196c-.059.004-.09.011-.11.035-.023.027-.023.183-.03 5.465 0 2.988-.005 5.441-.009 5.449-.011.031-.066-.008-.203-.14l-.531-.516c-.227-.215-.598-.579-.828-.801s-.613-.594-.848-.824l-.594-.57c-.09-.087-.199-.192-.246-.235a67 67 0 0 0-.824-.813c-.21-.199-.996-.964-1.52-1.48l-.683-.672a70 70 0 0 0-.59-.57c-.617-.59-1.18-1.137-2.172-2.114-.539-.53-.949-.925-1.054-1.015a6.5 6.5 0 0 0-.922-.652 6 6 0 0 0-.727-.344c-.312-.117-.804-.207-1.113-.196l-.156.004-.004.043c-.004.051.031.082.14.121.145.055.258.106.422.2.16.093.461.367.578.53.121.165.262.415.328.579.008.016.028.066.047.11.016.042.04.105.051.14a.3.3 0 0 0 .031.09c.008.015.012.039.012.055 0 .015.004.039.012.054a3.8 3.8 0 0 1 .152.902c.004.079.012 2.938.016 6.356.008 4.602.011 6.227.027 6.238.035.047.086.051.48.047.262-.004.399-.015.419-.027.027-.016.027-.035.035-5.461.008-5.055.008-5.45.031-5.469.023-.023.035-.015.188.133.085.086.206.2.265.254.059.05.281.27.492.476l.793.782c.223.222.653.648.957.945.301.3.633.625.735.723.722.699.964.933 1.246 1.218.613.61 1.425 1.41 1.765 1.739.188.18.63.613.98.965 1.247 1.23 1.688 1.671 1.977 1.945.165.152.606.594.989.973.683.68.773.761.812.722.008-.008.012-2.812.012-7.668v-7.656l-.031-.035c-.032-.031-.043-.031-.375-.035zM75.04 12.196c-.133.004-.133.004-.16.05-.028.043-.028.075-.028.43 0 .402.008.45.063.473.011.004 1.128.011 2.48.011 1.68 0 2.473.004 2.512.016q.053.012.066.047c.008.023.012 2.707.012 7.222 0 3.954.008 7.2.012 7.208.011.015.257.02 1.152.02.625 0 1.14-.005 1.148-.009.004-.008.012-3.254.016-7.222l.008-7.211.031-.031.031-.036 2.496-.004h2.493l.027-.03c.027-.028.027-.06.027-.454 0-.418 0-.418-.031-.45l-.035-.034h-6.094c-3.351 0-6.152.004-6.226.004M100.618 12.2c-.407.007-.45.011-.465.03q-.047.075.211.157c.058.016.129.043.16.059.035.011.07.027.074.027.012 0 .106.043.211.101.277.141.27.141.293.16.008.012.023.024.031.024.016 0 .2.145.285.227.04.035.106.109.145.16.203.254.289.43.391.797l.039.14.007 13.625 2.344.008v-3.71c-.004-2.571 0-3.74.012-3.794.008-.047.023-.082.031-.082.043 0 .395.324.906.828.067.07.309.305.54.524.226.218.523.511.66.644.136.137.476.465.75.73.273.266.707.688.961.938.257.246.566.547.687.66.121.118.227.22.234.23.032.032.395.388.536.52l.461.442c.175.172.332.32.336.324.011.004.097.086.199.188.379.37.613.578.773.687.293.203.656.394.985.523l.121.047c.035.016.203.07.254.086a3.286 3.286 0 0 0 .57.113c.019 0 .086.012.14.028.102.027.165.027 1.309.031.664 0 1.231-.004 1.262-.008.066-.015.074-.027.039-.078-.024-.031-.055-.05-.113-.066a8 8 0 0 1-.508-.164c-.016-.004-.067-.028-.117-.043a3 3 0 0 1-.18-.082c-.051-.024-.098-.047-.106-.047-.003 0-.218-.117-.339-.184a5 5 0 0 1-.539-.383c-.067-.039-.352-.312-1.083-1.027a54 54 0 0 0-1.148-1.11c-.047-.042-.305-.3-.578-.57-.43-.425-.719-.703-1.348-1.304-.183-.176-.535-.52-.953-.934-.57-.558-1.793-1.746-2.437-2.367-.223-.219-.239-.235-.239-.285 0-.059 0-.063.293-.328.09-.09.219-.207.278-.266.062-.058.183-.18.273-.266s.406-.394.703-.687.625-.61.727-.707c.105-.098.359-.352.57-.559.215-.21.465-.457.567-.55l.578-.567.554-.543c.086-.082.524-.512.969-.953.863-.851 1.02-1.004 1.195-1.156.106-.094.172-.196.145-.227a11 11 0 0 0-.633-.011c-.465-.004-.629 0-.652.011a1 1 0 0 0-.125.102c-.141.125-1.051 1.011-1.739 1.691-.23.223-.554.54-.722.7-.551.53-.703.675-1.059 1.03-.191.192-.355.352-.363.356s-.258.25-.555.54a49 49 0 0 1-.656.636l-.457.441c-.188.188-.43.422-.535.524l-.766.754c-.379.37-.586.566-.609.57-.028.004-.035-.008-.047-.043s-.016-1.262-.016-3.656c-.004-3.516-.004-3.606-.031-3.633-.023-.027-.07-.027-1.637-.031-.882 0-1.808.004-2.054.008M128.266 12.2c-.043.007-.07.042-.055.074.008.027.129.074.243.097l.117.028c.015.007.074.027.133.046.242.075.535.227.765.399.133.101.364.324.469.457.062.078.254.355.301.434.015.027.496.742.719 1.074.078.117.144.215.144.219a118.442 118.442 0 0 1 .871 1.3c.012.012.027.04.035.051.008.016.27.41.586.879l.598.898c.012.028.027.051.035.055.004.004.148.219.324.48a802 802 0 0 0 1.465 2.196c.012.015.055.082.102.148.043.07.097.168.121.215l.035.086.008 3.16c.004 1.735.011 3.16.015 3.164.008.008 1.27.012 2.293.012.012 0 .016-.703.02-3.324.004-2.785.008-3.332.023-3.367.063-.137.086-.18.141-.262a1 1 0 0 0 .062-.094c0-.004.118-.191.262-.418a11 11 0 0 0 .32-.504c.079-.117.317-.492.317-.5 0 0 .023-.043.055-.086.101-.152.464-.726.472-.742 0-.008.02-.039.043-.07.02-.031.11-.168.192-.3.086-.138.168-.267.187-.294.016-.027.102-.16.184-.293.086-.137.179-.281.207-.328.031-.047.058-.086.058-.09 0 0 .075-.125.172-.27.094-.148.168-.273.168-.277l.055-.086c.078-.113.316-.488.316-.496 0-.004.028-.043.059-.09.055-.082.328-.52.398-.629a4 4 0 0 1 .11-.171l.183-.29.297-.472c.106-.16.192-.3.195-.309l.059-.093c.063-.094.285-.45.305-.485.008-.012.035-.055.062-.094a1 1 0 0 0 .047-.074s.051-.09.121-.191c.067-.102.121-.192.121-.196 0-.003.02-.035.047-.074a1 1 0 0 0 .051-.078c0-.008.035-.062.082-.129.043-.066.09-.14.098-.168.011-.027.027-.05.035-.05.031 0 .031-.036.004-.047-.016-.004-.032-.016-.035-.024-.008-.008-.188-.012-.493-.012-.547 0-.531-.003-.629.114a.4.4 0 0 0-.058.078c0 .008-.051.086-.11.176a3 3 0 0 0-.105.175c0 .004-.008.012-.016.024-.015.02-.324.504-.347.547-.008.015-.039.062-.067.105-.027.043-.121.188-.207.325-.086.132-.179.28-.207.324a11.973 11.973 0 0 1-.254.406c-.113.168-.203.312-.203.312a1 1 0 0 1-.051.09c-.121.184-.222.34-.402.63-.223.35-.57.898-.637 1-.25.39-.414.648-.425.671-.02.031-.028.047-.215.336l-.141.23c-.019.028-.055.086-.086.13-.281.44-.437.69-.437.699 0 .007-.012.023-.028.039a.1.1 0 0 0-.031.035.4.4 0 0 1-.051.086c-.023.039-.047.074-.047.078s-.086.137-.191.305c-.23.363-.352.554-.379.605-.012.023-.043.059-.066.086-.059.055-.059.055-.168-.105l-.199-.305a785 785 0 0 1-1.993-2.992c-.074-.11-.14-.207-.144-.215a8 8 0 0 0-.176-.266c-.098-.14-.187-.277-.203-.3a12 12 0 0 0-.184-.282c-.086-.129-.164-.242-.172-.258-.05-.09-1.105-1.668-1.144-1.718-.098-.121-.109-.137-.176-.207a2.6 2.6 0 0 0-.476-.426 2 2 0 0 0-.145-.098.4.4 0 0 1-.066-.043 3 3 0 0 0-.793-.328c-.293-.062-.289-.062-1.602-.062-.691-.004-1.277 0-1.293.003M92.985 12.324c-.024.051-.043.094-.043.098s-.027.063-.059.129l-.058.125c0 .008-.024.059-.051.121l-.063.14c-.007.016-.039.09-.078.169a2 2 0 0 0-.062.148s-.016.04-.035.078c-.02.043-.051.11-.067.149-.015.039-.05.109-.07.156-.055.121-.102.219-.129.289-.023.055-.059.129-.125.277q-.046.1-.18.407l-.054.125c-.024.043-.051.105-.067.144a24 24 0 0 1-.187.414c-.075.176-.094.211-.133.297-.023.055-.047.105-.055.125-.004.016-.027.066-.05.121-.024.05-.06.121-.075.16-.047.102-.086.196-.117.27l-.074.156c-.024.05-.047.105-.055.121-.004.016-.031.07-.05.121a8 8 0 0 0-.133.297c-.016.04-.047.102-.063.14-.02.04-.05.102-.066.145-.035.075-.067.153-.125.278-.02.043-.043.101-.055.128a2 2 0 0 0-.062.137l-.133.293c-.016.035-.043.094-.059.137a7 7 0 0 0-.125.277c-.016.035-.043.098-.062.137-.016.04-.043.102-.063.145-.02.035-.047.105-.066.144a1 1 0 0 0-.035.082c0 .004-.028.066-.067.145-.035.078-.07.16-.082.183-.012.024-.05.117-.094.211-.039.09-.082.18-.093.207a2 2 0 0 1-.063.14c-.023.055-.05.114-.059.13a1 1 0 0 1-.054.12c-.02.055-.055.126-.074.169l-.063.144a1 1 0 0 0-.035.082c0 .004-.027.067-.066.145-.036.078-.07.156-.079.172-.015.039-.066.16-.113.258-.02.046-.055.117-.07.156l-.059.137c-.015.035-.05.105-.074.156-.023.05-.047.105-.055.12a5 5 0 0 1-.12.278 1 1 0 0 0-.048.11c0 .003-.03.066-.066.144a1 1 0 0 0-.063.145c0 .004-.027.062-.058.132a3 3 0 0 0-.082.172c-.012.028-.032.078-.047.11-.012.031-.04.086-.055.129-.02.039-.05.109-.074.156-.02.047-.05.117-.07.156-.016.04-.047.11-.067.152-.031.07-.058.13-.09.207l-.062.137-.082.18c-.016.035-.047.11-.07.16a1 1 0 0 0-.043.094c0 .004-.024.058-.051.12l-.133.29-.078.176a1 1 0 0 0-.05.117s-.028.066-.067.144c-.035.079-.07.157-.078.172a1 1 0 0 1-.055.121c-.047.102-.094.215-.121.278-.02.047-.055.12-.133.293a2 2 0 0 0-.059.136l-.05.114c-.024.05-.055.117-.07.152-.04.09-.075.164-.122.273-.023.051-.05.118-.066.149-.028.063-.059.129-.114.258-.042.09-.078.172-.124.273-.09.207-.16.363-.176.403a.14.14 0 0 0-.02.054c.016.012.95.008.985-.004.039-.015.14-.113.14-.133 0-.007.024-.062.051-.125l.05-.109c0-.004.024-.062.055-.129.032-.066.06-.125.06-.129 0-.008.026-.07.062-.148.035-.074.066-.137.066-.14 0-.005.023-.055.05-.118l.079-.176.125-.277c.097-.207.113-.246.144-.312a1 1 0 0 0 .028-.075c0-.004.031-.066.062-.14.035-.07.075-.157.086-.184.012-.027.04-.086.059-.133l.062-.137c.008-.027.035-.082.051-.12l.055-.126c.031-.078.105-.152.164-.168.058-.015 7.484-.023 7.574-.007.094.015.172.113.266.336.011.027.043.097.07.156l.082.18c.02.039.059.128.094.199.035.07.074.16.094.199.015.039.054.125.085.187.028.063.063.137.075.168.011.028.043.09.062.141.024.05.059.125.074.164.059.133.086.184.149.32a10 10 0 0 1 .3.68c.012.023.032.066.044.098.015.039.03.054.062.058.031.008 2.176.016 2.508.012.012 0 .012-.016.012-.043a.7.7 0 0 0-.067-.172c-.019-.043-.055-.117-.074-.164-.09-.2-.105-.238-.152-.34a2 2 0 0 1-.082-.175l-.079-.172-.082-.172a3 3 0 0 0-.078-.18l-.078-.164c-.012-.031-.05-.113-.082-.18-.031-.066-.066-.148-.082-.18a4 4 0 0 0-.086-.19 2 2 0 0 1-.062-.137c0-.004-.032-.075-.075-.16-.039-.087-.086-.184-.101-.22l-.07-.156-.141-.308a3 3 0 0 0-.086-.196l-.07-.148a2 2 0 0 0-.086-.187c-.04-.086-.082-.184-.098-.215a2 2 0 0 0-.082-.184 1 1 0 0 1-.062-.133s-.024-.062-.059-.129l-.086-.191c-.016-.035-.043-.098-.062-.137s-.063-.133-.098-.207c-.035-.078-.066-.144-.066-.148a3 3 0 0 0-.07-.16c-.044-.086-.083-.18-.099-.207-.011-.028-.042-.094-.066-.149a3 3 0 0 1-.078-.172c-.02-.039-.066-.144-.11-.234a4 4 0 0 1-.078-.168c0-.004-.023-.063-.058-.133-.059-.125-.09-.191-.148-.324a2 2 0 0 0-.083-.18c-.027-.058-.062-.14-.082-.18a5 5 0 0 0-.078-.175 15 15 0 0 1-.152-.332c-.012-.028-.055-.114-.09-.192s-.074-.168-.086-.191a3 3 0 0 0-.07-.152c-.14-.309-.215-.473-.246-.536l-.078-.172-.09-.195c-.016-.039-.055-.12-.082-.18l-.082-.175c-.02-.043-.063-.133-.094-.207l-.062-.137a2 2 0 0 0-.075-.16c-.039-.086-.086-.184-.101-.219a10 10 0 0 0-.145-.324c-.027-.055-.062-.137-.082-.18s-.059-.117-.078-.172a14 14 0 0 1-.176-.383c-.027-.05-.062-.128-.082-.171-.031-.075-.094-.204-.16-.352l-.168-.367-.094-.2a4 4 0 0 1-.082-.187c-.02-.035-.054-.113-.082-.172-.074-.164-.125-.27-.16-.347-.031-.07-.078-.168-.18-.395l-.086-.187-.093-.2c-.059-.125-.098-.215-.153-.336-.02-.039-.054-.12-.082-.18l-.086-.187c-.023-.043-.058-.125-.086-.183l-.078-.164a4 4 0 0 0-.086-.196l-.086-.183-.078-.172-.074-.172c-.023-.059-.07-.117-.094-.117-.011 0-.039.043-.062.097m-.617 3.993a10 10 0 0 1 .316.656c.004.015.035.078.063.14s.05.114.05.118.035.082.079.175c.046.09.097.204.117.247s.054.117.074.164c.023.046.062.136.09.195l.086.183c.058.13.14.305.152.336l.145.317c.015.039.05.117.078.172.047.097.093.203.129.285.02.05.105.23.164.36.046.097.109.238.156.343.016.04.055.113.078.172.027.055.063.129.078.172.02.035.067.144.11.234.043.086.078.164.078.168s.03.074.07.156c.039.082.07.153.07.157 0 .003.031.066.063.136.066.14.125.266.183.399.082.175.13.285.168.367.024.047.055.121.078.164.02.043.051.117.079.172.02.05.058.129.078.172.035.082.101.222.203.437.035.074.062.137.062.14 0 .005.07.157.153.337l.078.172.055.117c.019.039.085.203.085.215q-.001.01-.027.027c-.031.016-6.844.02-6.883.004-.05-.02-.011-.14.156-.5a1 1 0 0 0 .047-.113l.059-.133.082-.176.063-.14a11.855 11.855 0 0 1 .168-.375l.07-.16.125-.274c.015-.043.047-.106.062-.145.02-.039.047-.109.067-.152s.047-.102.058-.129c.024-.05.047-.102.121-.27.051-.109.075-.164.118-.265l.066-.145.059-.132c.015-.028.05-.11.082-.176.03-.07.058-.13.058-.133s.02-.047.04-.098c.023-.047.058-.12.073-.16.02-.039.047-.11.067-.152.02-.043.047-.098.055-.121l.085-.184c.036-.078.063-.144.063-.144 0-.008.04-.09.102-.23.02-.048.054-.118.07-.157.02-.04.047-.106.066-.145.016-.039.043-.093.055-.125.016-.035.047-.101.066-.152a1 1 0 0 0 .055-.121l.078-.168c.035-.078.067-.145.067-.148s.027-.07.062-.145.066-.14.066-.145c0 0 .016-.043.04-.093.023-.047.054-.117.07-.153.039-.09.102-.222.148-.324.024-.05.04-.094.04-.094 0-.007.03-.07.066-.144.035-.074.062-.14.062-.145s.032-.066.063-.14l.086-.184a9 9 0 0 1 .144-.32 1 1 0 0 0 .051-.13c0-.019.082-.12.102-.12.004 0 .023.023.039.05M124.243 12.27a1 1 0 0 0-.075.136c-.019.055-.058.141-.082.196-.023.05-.062.129-.082.175-.019.051-.046.106-.058.13-.012.023-.071.163-.133.308-.066.149-.141.313-.168.371a1 1 0 0 0-.047.11 3.82 3.82 0 0 0-.113.258c-.02.038-.051.113-.074.163a1 1 0 0 0-.055.121c-.016.036-.063.141-.113.258-.024.047-.055.117-.075.156-.015.04-.046.11-.066.153-.019.043-.043.098-.055.121-.011.023-.043.101-.074.168-.035.07-.058.133-.058.133a1 1 0 0 1-.055.117q-.106.233-.16.355c-.02.04-.047.106-.067.149a1 1 0 0 0-.035.078c0 .004-.027.07-.066.144l-.082.188c-.012.023-.035.082-.059.129-.019.047-.047.101-.055.129l-.086.183c-.035.078-.066.145-.066.149 0 0-.016.043-.039.094-.078.171-.16.347-.195.433a11 11 0 0 1-.141.313c-.027.062-.059.129-.062.144-.051.11-.094.207-.168.375-.024.043-.051.11-.063.14a4 4 0 0 0-.078.169 2 2 0 0 0-.051.117c0 .004-.043.102-.121.273-.019.036-.043.094-.055.122-.011.027-.039.085-.058.128s-.047.11-.067.149l-.136.3a2 2 0 0 0-.09.215c0 .004-.031.07-.067.145-.035.078-.07.156-.074.172-.008.015-.031.07-.058.121-.036.082-.063.14-.102.234l-.062.137c-.028.059-.063.14-.082.18a4 4 0 0 1-.114.254 1 1 0 0 1-.047.113l-.07.156-.059.13-.125.28a13.665 13.665 0 0 1-.187.418l-.059.137c-.019.04-.046.102-.066.14l-.059.137c-.015.036-.043.09-.054.121-.032.075-.078.18-.129.29a1 1 0 0 0-.043.097c0 .004-.028.067-.063.14-.035.079-.066.145-.066.15 0 .003-.027.07-.063.144-.039.078-.07.152-.078.168l-.062.14a1 1 0 0 0-.051.118c0 .003-.023.05-.047.105-.086.191-.125.27-.156.34-.016.039-.047.105-.063.148l-.035.078c0 .004-.031.07-.066.149s-.07.152-.078.168c-.004.015-.039.09-.075.168s-.066.144-.066.148-.023.055-.051.11a8 8 0 0 0-.121.277c-.012.023-.043.094-.152.336-.082.172-.106.23-.106.234s-.023.055-.05.117l-.063.141c-.008.016-.043.09-.078.172-.035.074-.063.14-.063.145 0 .003-.023.05-.046.101a5 5 0 0 0-.168.383c0 .004-.016.035-.028.07a1.1 1.1 0 0 0-.101.274q-.002.035.039.046c.023.008.207.02.433.024.356.004.403 0 .45-.02.105-.046.152-.113.25-.335a4 4 0 0 1 .097-.231c0-.004.024-.059.051-.117l.125-.277.129-.294c.019-.039.051-.101.066-.14.028-.063.047-.102.114-.258l.054-.121c.024-.055.051-.121.067-.152a1 1 0 0 1 .051-.114c.031-.07.058-.136.097-.222.016-.035.039-.098.059-.137.015-.04.039-.082.043-.098.078-.195.156-.312.246-.363.043-.023.234-.023 3.832-.027 4.223-.004 3.844-.016 3.918.097a.4.4 0 0 1 .035.067c0 .008.012.039.027.07.035.066.118.25.149.32.027.063.144.32.238.52.066.144.113.254.137.3.008.024.047.11.086.188l.086.195c.015.024.047.102.078.165.027.062.062.14.078.171.027.063.066.149.141.305.027.059.062.145.085.188.098.222.141.308.153.316.004.004.574.004 1.265 0h1.258v-.039a.4.4 0 0 0-.015-.074c-.008-.02-.02-.051-.028-.067-.008-.015-.039-.09-.074-.164s-.074-.164-.09-.195l-.07-.156a3 3 0 0 1-.078-.172 4 4 0 0 1-.086-.188c-.031-.062-.063-.136-.078-.164-.008-.027-.047-.11-.078-.18-.063-.128-.094-.203-.164-.347-.016-.043-.059-.133-.086-.195a4 4 0 0 1-.086-.184l-.09-.195-.09-.192q-.089-.198-.172-.379c-.031-.07-.074-.16-.094-.203l-.078-.172-.078-.171-.078-.168a4 4 0 0 1-.086-.188l-.086-.18c-.019-.047-.062-.136-.09-.199-.031-.066-.066-.14-.078-.172-.027-.058-.094-.199-.16-.343a3 3 0 0 0-.078-.18c-.078-.168-.129-.274-.164-.352-.043-.093-.106-.23-.164-.363l-.086-.18c-.016-.039-.051-.113-.074-.164-.024-.05-.059-.133-.082-.18a3 3 0 0 0-.079-.171c-.019-.047-.054-.117-.07-.157-.031-.074-.074-.164-.16-.347a16 16 0 0 0-.145-.324c-.019-.04-.054-.122-.082-.18-.031-.059-.062-.133-.074-.16l-.074-.164c-.082-.176-.117-.25-.149-.328-.019-.04-.054-.122-.082-.18-.027-.059-.066-.14-.082-.18l-.086-.176-.234-.523-.082-.172a4 4 0 0 0-.078-.172c-.016-.039-.051-.113-.074-.164l-.078-.172-.079-.172c-.05-.109-.097-.21-.144-.324-.023-.043-.059-.125-.086-.18l-.07-.156-.094-.203c-.039-.086-.074-.156-.074-.16 0-.008-.032-.074-.067-.156-.039-.078-.082-.172-.097-.203a3 3 0 0 0-.086-.188 2 2 0 0 1-.063-.14l-.058-.133-.102-.22c-.023-.05-.055-.124-.074-.163l-.07-.149a14 14 0 0 0-.196-.421c-.019-.047-.054-.122-.07-.16-.016-.04-.055-.118-.078-.173-.028-.054-.059-.132-.078-.171-.09-.2-.129-.282-.266-.575-.035-.074-.062-.136-.062-.136 0-.004-.028-.067-.059-.133-.098-.215-.137-.297-.172-.371a4 4 0 0 0-.086-.188 4 4 0 0 0-.078-.172 3 3 0 0 0-.086-.183c-.031-.074-.07-.156-.082-.188-.016-.03-.039-.082-.055-.11-.011-.03-.027-.062-.027-.07a.6.6 0 0 0-.109-.171c-.008 0-.024.02-.043.043m-.66 4.011c.015.036.058.133.101.22.152.323.188.398.242.519l.149.316c.023.055.121.277.164.367.015.032.051.11.082.172.027.063.07.152.09.203.023.051.043.094.043.098l.066.145.176.378c.023.055.062.137.086.188.019.05.054.121.07.16.02.04.063.133.094.207.035.074.062.137.062.137 0 .004.039.082.082.172s.078.168.078.172l.231.507c.043.094.094.196.109.239.02.035.055.117.082.175.028.059.067.141.082.18.02.04.059.121.082.18.028.058.067.144.086.187.078.172.133.285.2.426.039.082.07.152.07.152 0 .004.015.047.039.098.082.168.156.332.187.402.016.04.055.122.082.18.028.059.063.14.082.184.02.039.051.11.071.148.078.176.121.266.168.371.027.059.066.137.082.176l.078.172c.027.055.062.133.078.172l.047.097c.023.047.016.122-.016.141-.027.012-6.902.023-6.918.008a.5.5 0 0 1 .055-.129c.031-.07.059-.129.059-.133s.019-.047.043-.101a3 3 0 0 1 .078-.168c.015-.04.043-.102.062-.141.016-.035.043-.094.055-.129.016-.031.047-.098.066-.144.075-.16.098-.215.11-.247.004-.015.039-.09.074-.168s.066-.14.066-.148c0-.004.028-.066.067-.145.035-.074.062-.136.062-.14 0-.008.028-.067.125-.277.031-.07.059-.133.059-.137s.023-.055.051-.11c.097-.21.148-.324.179-.406.004-.015.032-.07.055-.12.023-.052.051-.114.062-.142.016-.027.051-.109.082-.175.032-.07.059-.133.059-.137 0 0 .02-.05.047-.11.027-.054.059-.124.07-.152l.137-.308a45.736 45.736 0 0 1 .445-.988c0-.005.016-.047.039-.094.024-.051.051-.118.067-.149.011-.031.043-.094.062-.14l.063-.137c.039-.09.086-.192.121-.274.019-.043.051-.109.066-.148.02-.043.059-.121.086-.184l.051-.117c0-.008.082-.191.191-.426.028-.062.051-.113.051-.117s.02-.05.043-.097c.02-.051.055-.125.07-.16.02-.044.047-.11.071-.153l.097-.223c.036-.078.079-.175.098-.214s.047-.106.063-.145c.019-.043.039-.074.046-.074.008 0 .024.027.04.058"/></g><defs><clipPath id="a"><path fill="#fff" d="M0 0h144v32H0z"/></clipPath></defs></svg>